<?xml version="1.0" encoding="UTF-8"?>
<svg version="1.1" viewBox="0 0 2000 2000" width="1280" height="1280" xmlns="http://www.w3.org/2000/svg">
<path transform="translate(546,811)" d="m0 0 1 2-6 14-2 12v24l3 19 5 17 9 20 10 18 12 18 10 13 11 13 9 11 11 11 7 8 12 11 8 7 14 13 8 7 12 11 8 7 11 9 13 11 17 14 13 12 11 9 15 13 20 20 8 13 3 8v6l-6 8-9 4-16 2h-18l-1-3 9-6 2-3v-10l-4-9-8-10-13-11-15-13-13-11-14-12-10-9-8-7-13-12-15-14-13-11-24-22-18-13 8 11 12 14 13 15 10 11 9 11 12 13 9 11 11 12 7 8 12 13 10 13 1 3-7 1-23-1-25-5-24-8-20-9-19-11-11-8-10-8-12-11-8-8-9-11-11-15-9-15-11-23-8-24-4-21-1-11v-35l2-20 6-25 10-25 9-17 14-22 8-10z" fill="#5BB263"/>
<path transform="translate(852,811)" d="m0 0 4 2 11 15 15 25 8 17 8 24 5 23 1 9 1 27-2 28-5 23-5 15-8 18-7 14-12 18-8 10-9 10-5 6-8 7-10 9-17 12-10 6-12 5-6-2-12-9-14-12-10-8-4-4 1-6 7-10 10-11 15-20-8 6-10 7-10 9-13 10-4 2-8-4-9-7-3-3 1-4 7-8 16-15 14-13 8-7 12-11 20-20 9-11 9-10 1-2h2l2-4 12-16 10-16 6-10 10-21 7-20 4-20v-22l-4-19-3-8zm-72 234m-1 1m-1 1m-1 1m-1 1-1 2h2z" fill="#5BB263"/>
<path transform="translate(689,852)" d="m0 0h17l13 3 16 8 13 12 7 11 5 12 2 10v13l-3 14-7 14-9 11-12 9-10 5-11 3-6 1h-9l-12-2-13-5-11-7-9-9-8-13-4-11-2-8v-14l4-16 6-12 11-13 10-7 12-6z" fill="#5BB263"/>
<path transform="translate(1242,971)" d="m0 0h32l8 2 6 5 3 5 1 9v87l-4 1h-18l-2-3 1-34h-18l1 36-2 1h-19l-3-2 1-92 4-8 7-6zm10 15-1 1v36l2 4h16v-40l-1-1z" fill="#FEFEFE"/>
<path transform="translate(1525,973)" d="m0 0h21l2 2 1 42 18 1v-45h23v106l-2 1h-17l-5-1v-41l-18-1v42l-2 1h-17l-4-1-1-3z" fill="#FEFEFE"/>
<path transform="translate(1067,973)" d="m0 0h21l1 1 1 90h14l1-90 1-1h21l1 1v92l-3 8-8 7-7 1h-25l-9-2-7-6-3-8v-91z" fill="#FEFEFE"/>
<path transform="translate(1160,972)" d="m0 0 36 1 6 3 6 7 1 3v27l-3 5-3 2 1 6 4 5 1 48-6 1h-16l-2-1v-19l1-24-16-1 1 30v14l-4 1h-18l-2-1v-22l1-84zm10 15v33h15l2-2 1-8v-18l-1-4-2-1z" fill="#FEFEFE"/>
<path transform="translate(1459,971)" d="m0 0h31l8 2 7 8 2 11v10l-2 1h-15l-5-1-1-16-15 1-1 78 16 1 1-19 1-1h21v17l-2 9-5 7-4 2-6 1h-30l-7-3-6-5-2-5v-83l4-8 7-6z" fill="#FDFDFD"/>
<path transform="translate(1e3 971)" d="m0 0h27l9 2 5 5 4 8 1 6v8l-1 2-4 1-16-1-1-1v-14h-17l-1 78h15l2-1 2-18 5-1h11l4 2 1 4v11l-3 11-4 5-6 3-6 1h-26l-9-3-5-4-3-7-1-7 1-75 3-7 5-5 3-2z" fill="#FEFEFE"/>
<path transform="translate(1379,973)" d="m0 0h48l1 1v9l-1 8h-26l1 25 20 1 4 2v15l-1 1h-13l-11-1 1 25 2 1 22 1 2 3v15l-5 1h-43l-2-1v-98z" fill="#FEFEFE"/>
<path transform="translate(1307,973)" d="m0 0h56l2 2v14l-1 2-16 1-1 87-4 1h-18l-1-1v-87l-17-1-1-1v-15z" fill="#FEFEFE"/>
</svg>
